<?xml version="1.0" encoding="UTF-8"?>
<svg width="1493px" height="1000px" viewBox="0 0 1493 1000" version="1.1" xmlns="http://www.w3.org/2000/svg" xmlns:xlink="http://www.w3.org/1999/xlink">
    <!-- Generator: Sketch 54.1 (76490) - https://sketchapp.com -->
    <title>STAR</title>
    <desc>Created with Sketch.</desc>
    <g id="STAR" stroke="none" stroke-width="1" fill="none" fill-rule="evenodd">
        <rect fill="#FFFFFF" x="0" y="0" width="1493" height="1000"></rect>
        <g id="Group" transform="translate(89.000000, 128.000000)">
            <text id="SLSTAR" font-family="NexaBold, Nexa Bold" font-size="265" font-weight="bold" line-spacing="304" letter-spacing="54">
                <tspan x="0" y="774" fill="#4897F7">SL</tspan>
                <tspan x="438.19" y="774" fill="#2B425F">STA</tspan>
                <tspan x="1136.815" y="774" fill="#2B425F">R</tspan>
            </text>
            <g id="Iconograph" transform="translate(303.000000, 0.000000)">
                <path d="M573.469698,321.286089 C553.751554,389.778956 501.843088,449.440112 434.771239,474.526406 C345.780167,507.81447 236.957847,477.677896 177.790849,403.357643 C98.7495137,304.080316 120.270172,149.415009 225.052993,77.6845066 C279.911191,40.1286494 351.336723,25.7674734 415.837656,43.6319005 C507.40503,68.9891932 577.722842,157.311682 581.891605,252.202766 C582.918536,275.575123 579.913148,298.902612 573.469698,321.286089" id="Fill-1" fill="#4897F7"></path>
                <polyline id="Fill-2" fill="#DFDF00" points="355.083603 82.1041335 355.083603 82.075407 355.047623 82 299.90966 201.297493 169.089 216.773886 265.805762 306.039636 240.135639 435 355.083603 370.783743 355.083603 370.780152 355.085402 370.778356 355.089 370.780152 355.089 82.0897703 355.083603 82.1041335"></polyline>
                <polyline id="Fill-3" fill="#DD9E00" points="355.096157 370.780152 355.096157 370.783743 469.424332 435 443.892221 306.039636 540.089 216.773886 409.971677 201.297493 355.130155 82 355.096157 82.075407 355.096157 82.1041335 355.089 82.0897703 355.089 370.780152 355.092579 370.778356 355.096157 370.780152"></polyline>
                <polyline id="Fill-4" fill="#21324C" points="95.8919938 216.632969 63.6914933 180.407068 109.348196 176.160277 154.947479 39.0134744 218.348999 60.0538249 228.089 30.7672775 135.370579 0 86.3924424 147.302173 0.089 155.333252 60.9568283 223.805368 14.2683455 364.23093 106.981383 395 116.721384 365.71166 53.3180693 344.673102 95.8919938 216.632969"></polyline>
                <polyline id="Fill-5" fill="#21324C" points="710.089 155.333252 623.784878 147.302173 574.808151 0 482.089 30.7672775 491.829078 60.0538249 555.229303 39.0134744 600.828944 176.160277 646.486006 180.407068 614.285252 216.632969 656.859512 344.673102 593.455698 365.71166 603.193981 395 695.911337 364.23093 649.222487 223.805368 710.089 155.333252"></polyline>
                <path d="M355.182569,359.649242 L355.182569,359.645641 L355.180774,359.64384 L355.177185,359.645641 L355.173596,359.64384 L355.171801,359.645641 L355.171801,359.649242 L250.064722,418.690647 L273.537099,300.121632 L185.097562,218.04855 L304.722342,203.818972 L355.1395,94.1366906 L355.171801,94.2051194 L355.171801,94.23033 L355.177185,94.2177247 L355.182569,94.23033 L355.182569,94.2051194 L355.21487,94.1366906 L405.632028,203.818972 L525.256808,218.04855 L436.81727,300.121632 L460.291442,418.690647 L355.182569,359.649242 Z M471.028174,310.730982 L596.089,194.938625 L426.932599,174.863465 L355.593491,20.0233829 L355.593491,20 L355.588102,20.0107921 L355.582712,20 L355.582712,20.0233829 L284.243604,174.863465 L115.089,194.938625 L240.14803,310.730982 L206.957774,478 L355.588102,394.704544 L504.218429,478 L471.028174,310.730982 L471.028174,310.730982 Z" id="Fill-6" fill="#21324C"></path>
            </g>
        </g>
    </g>
</svg>